<svg width="100" height="100" viewBox="0 0 100 100" fill="none" xmlns="http://www.w3.org/2000/svg">
<path d="M56.7559 37.5C52.8145 37.5 35.8926 37.8867 25 54.2871V37.5C25 27.1602 16.5898 18.75 6.25 18.75C2.79883 18.75 0 21.5488 0 25C0 28.4512 2.79883 31.25 6.25 31.25C9.69531 31.25 12.5 34.0547 12.5 37.5V87.5C12.5 94.3945 18.1055 100 25 100H59.375C61.1016 100 62.5 98.6016 62.5 96.875V93.75C62.5 90.2988 59.7012 87.5 56.25 87.5H50L75 68.75V96.875C75 98.6016 76.3984 100 78.125 100H84.375C86.1016 100 87.5 98.6016 87.5 96.875V56.6133C85.4902 57.1348 83.4199 57.5 81.25 57.5C69.1777 57.5 59.0781 48.8965 56.7559 37.5ZM87.5 18.75H75L62.5 6.25V32.5C62.5 42.8555 70.8945 51.25 81.25 51.25C91.6055 51.25 100 42.8555 100 32.5V6.25L87.5 18.75ZM73.4375 34.375C71.7109 34.375 70.3125 32.9766 70.3125 31.25C70.3125 29.5234 71.7109 28.125 73.4375 28.125C75.1641 28.125 76.5625 29.5234 76.5625 31.25C76.5625 32.9766 75.1641 34.375 73.4375 34.375ZM89.0625 34.375C87.3359 34.375 85.9375 32.9766 85.9375 31.25C85.9375 29.5234 87.3359 28.125 89.0625 28.125C90.7891 28.125 92.1875 29.5234 92.1875 31.25C92.1875 32.9766 90.7891 34.375 89.0625 34.375Z" fill="#1A2A40"/>
</svg>
