<svg width="200" height="80" viewBox="0 0 200 80" fill="none" xmlns="http://www.w3.org/2000/svg">
<rect width="200" height="80" rx="20" fill="#1A2A40"/>
<path d="M48.7023 35C47.1258 35 40.357 35.1547 36 41.7148V35C36 30.8641 32.6359 27.5 28.5 27.5C27.1195 27.5 26 28.6195 26 30C26 31.3805 27.1195 32.5 28.5 32.5C29.8781 32.5 31 33.6219 31 35V55C31 57.7578 33.2422 60 36 60H49.75C50.4406 60 51 59.4406 51 58.75V57.5C51 56.1195 49.8805 55 48.5 55H46L56 47.5V58.75C56 59.4406 56.5594 60 57.25 60H59.75C60.4406 60 61 59.4406 61 58.75V42.6453C60.1961 42.8539 59.368 43 58.5 43C53.6711 43 49.6313 39.5586 48.7023 35ZM61 27.5H56L51 22.5V33C51 37.1422 54.3578 40.5 58.5 40.5C62.6422 40.5 66 37.1422 66 33V22.5L61 27.5ZM55.375 33.75C54.6844 33.75 54.125 33.1906 54.125 32.5C54.125 31.8094 54.6844 31.25 55.375 31.25C56.0656 31.25 56.625 31.8094 56.625 32.5C56.625 33.1906 56.0656 33.75 55.375 33.75ZM61.625 33.75C60.9344 33.75 60.375 33.1906 60.375 32.5C60.375 31.8094 60.9344 31.25 61.625 31.25C62.3156 31.25 62.875 31.8094 62.875 32.5C62.875 33.1906 62.3156 33.75 61.625 33.75Z" fill="white"/>
<path d="M84.0227 51.5V28.2273H88.9432V47.4432H98.9205V51.5H84.0227ZM122.659 39.8636C122.659 42.4015 122.178 44.5606 121.216 46.3409C120.261 48.1212 118.958 49.4811 117.307 50.4205C115.663 51.3523 113.814 51.8182 111.761 51.8182C109.693 51.8182 107.837 51.3485 106.193 50.4091C104.549 49.4697 103.25 48.1098 102.295 46.3295C101.341 44.5492 100.864 42.3939 100.864 39.8636C100.864 37.3258 101.341 35.1667 102.295 33.3864C103.25 31.6061 104.549 30.25 106.193 29.3182C107.837 28.3788 109.693 27.9091 111.761 27.9091C113.814 27.9091 115.663 28.3788 117.307 29.3182C118.958 30.25 120.261 31.6061 121.216 33.3864C122.178 35.1667 122.659 37.3258 122.659 39.8636ZM117.67 39.8636C117.67 38.2197 117.424 36.8333 116.932 35.7045C116.447 34.5758 115.761 33.7197 114.875 33.1364C113.989 32.553 112.951 32.2614 111.761 32.2614C110.572 32.2614 109.534 32.553 108.648 33.1364C107.761 33.7197 107.072 34.5758 106.58 35.7045C106.095 36.8333 105.852 38.2197 105.852 39.8636C105.852 41.5076 106.095 42.8939 106.58 44.0227C107.072 45.1515 107.761 46.0076 108.648 46.5909C109.534 47.1742 110.572 47.4659 111.761 47.4659C112.951 47.4659 113.989 47.1742 114.875 46.5909C115.761 46.0076 116.447 45.1515 116.932 44.0227C117.424 42.8939 117.67 41.5076 117.67 39.8636ZM141.736 35.75C141.577 35.197 141.353 34.7083 141.065 34.2841C140.777 33.8523 140.425 33.4886 140.009 33.1932C139.599 32.8902 139.13 32.6591 138.599 32.5C138.077 32.3409 137.497 32.2614 136.861 32.2614C135.671 32.2614 134.626 32.5568 133.724 33.1477C132.83 33.7386 132.134 34.5985 131.634 35.7273C131.134 36.8485 130.884 38.2197 130.884 39.8409C130.884 41.4621 131.13 42.8409 131.622 43.9773C132.115 45.1136 132.812 45.9811 133.713 46.5795C134.615 47.1705 135.679 47.4659 136.906 47.4659C138.02 47.4659 138.971 47.2689 139.759 46.875C140.554 46.4735 141.16 45.9091 141.577 45.1818C142.001 44.4545 142.213 43.5947 142.213 42.6023L143.213 42.75H137.213V39.0455H146.952V41.9773C146.952 44.0227 146.52 45.7803 145.656 47.25C144.793 48.7121 143.603 49.8409 142.088 50.6364C140.573 51.4242 138.838 51.8182 136.884 51.8182C134.702 51.8182 132.785 51.3371 131.134 50.375C129.482 49.4053 128.194 48.0303 127.27 46.25C126.353 44.4621 125.895 42.3409 125.895 39.8864C125.895 38 126.168 36.3182 126.713 34.8409C127.266 33.3561 128.039 32.0985 129.031 31.0682C130.024 30.0379 131.179 29.2538 132.497 28.7159C133.815 28.178 135.243 27.9091 136.781 27.9091C138.099 27.9091 139.327 28.1023 140.463 28.4886C141.599 28.8674 142.607 29.4053 143.486 30.1023C144.372 30.7992 145.096 31.6288 145.656 32.5909C146.217 33.5455 146.577 34.5985 146.736 35.75H141.736ZM172.034 39.8636C172.034 42.4015 171.553 44.5606 170.591 46.3409C169.636 48.1212 168.333 49.4811 166.682 50.4205C165.038 51.3523 163.189 51.8182 161.136 51.8182C159.068 51.8182 157.212 51.3485 155.568 50.4091C153.924 49.4697 152.625 48.1098 151.67 46.3295C150.716 44.5492 150.239 42.3939 150.239 39.8636C150.239 37.3258 150.716 35.1667 151.67 33.3864C152.625 31.6061 153.924 30.25 155.568 29.3182C157.212 28.3788 159.068 27.9091 161.136 27.9091C163.189 27.9091 165.038 28.3788 166.682 29.3182C168.333 30.25 169.636 31.6061 170.591 33.3864C171.553 35.1667 172.034 37.3258 172.034 39.8636ZM167.045 39.8636C167.045 38.2197 166.799 36.8333 166.307 35.7045C165.822 34.5758 165.136 33.7197 164.25 33.1364C163.364 32.553 162.326 32.2614 161.136 32.2614C159.947 32.2614 158.909 32.553 158.023 33.1364C157.136 33.7197 156.447 34.5758 155.955 35.7045C155.47 36.8333 155.227 38.2197 155.227 39.8636C155.227 41.5076 155.47 42.8939 155.955 44.0227C156.447 45.1515 157.136 46.0076 158.023 46.5909C158.909 47.1742 159.947 47.4659 161.136 47.4659C162.326 47.4659 163.364 47.1742 164.25 46.5909C165.136 46.0076 165.822 45.1515 166.307 44.0227C166.799 42.8939 167.045 41.5076 167.045 39.8636Z" fill="white"/>
</svg>
